<svg width="350" height="47" viewBox="0 0 350 47" fill="none" xmlns="http://www.w3.org/2000/svg">
<g clip-path="url(#clip0_81_2607)">
<mask id="mask0_81_2607" style="mask-type:luminance" maskUnits="userSpaceOnUse" x="0" y="0" width="350" height="47">
<path d="M350 0H0V47H350V0Z" fill="white"/>
</mask>
<g mask="url(#mask0_81_2607)">
<path d="M106.692 9.43286H78.658V15.6588H89.5666V37.589H95.7836V15.6588H106.692V9.43286Z" fill="#2FB3FF"/>
<path d="M118.947 9.33521H112.542V15.5665V37.5159H118.947V9.33521Z" fill="#2FB3FF"/>
<path d="M28.1558 18.7724H46.7374V28.2739H28.1558V46.9517H18.7032V28.2739H0.121582V18.7724H18.7032V0.0945573H28.1558V18.7724ZM56.1669 0.0480957V46.9517H65.6195V0.0480957H56.1669Z" fill="#2FB3FF"/>
<path d="M331.158 37.4151L335.998 29.8791C333.678 28.5756 332.398 26.2944 332.398 23.6467C332.398 19.5732 335.038 16.3551 340.318 16.3551H349.878V37.4151H344.118V30.979H341.678L337.598 37.4151H331.158ZM338.158 23.6874C338.158 25.2761 339.238 26.4574 341.118 26.4574H344.118V20.9989H341.118C339.278 20.9989 338.158 22.1395 338.158 23.6874Z" fill="#2FB3FF"/>
<path d="M328.818 16.3551V37.4151H323.253V25.1131L315.469 37.4151H310.098V16.3551H315.664V28.5756L323.448 16.3551H328.818Z" fill="#2FB3FF"/>
<path d="M307.758 31.9587V42.0951H302.339V36.987H286.698V16.3551H292.351V31.9587H299.28V16.3551H304.932V31.9587H307.758Z" fill="#2FB3FF"/>
<path d="M276.656 23.5957C276.656 21.7271 275.306 20.7539 273.468 20.7539C271.593 20.7539 270.618 21.6493 270.318 22.7003H265.218C265.743 19.2358 268.631 16.3551 273.693 16.3551C278.681 16.3551 282.018 18.8854 282.018 23.7903V36.948H276.956V34.768C275.756 36.403 273.731 37.4151 271.218 37.4151C267.468 37.4151 264.468 35.0794 264.468 31.0309C264.468 26.9046 267.468 24.53 272.418 24.53H276.656V23.5957ZM269.943 30.7584C269.943 32.1598 271.031 33.0162 272.718 33.0162C274.818 33.0162 276.656 31.6927 276.656 29.357V28.4617H272.831C271.143 28.4617 269.943 29.3181 269.943 30.7584Z" fill="#2FB3FF"/>
<path d="M253.477 16.3551C258.228 16.3551 262.128 20.1771 262.128 26.9241C262.128 33.5541 258.228 37.4541 253.323 37.4541C250.774 37.4541 248.881 36.4401 247.877 35.0361V44.4351H242.238V16.8231H247.645V19.1631C248.65 17.6421 250.542 16.3551 253.477 16.3551ZM247.761 27.0021C247.761 30.3951 249.499 32.5401 252.125 32.5401C254.752 32.5401 256.451 30.3561 256.451 26.9241C256.451 23.4921 254.752 21.2691 252.125 21.2691C249.499 21.2691 247.761 23.4531 247.761 26.8461V27.0021Z" fill="#2FB3FF"/>
<path d="M224.688 37.4151V16.3551H238.728V21.4877H230.274V37.4151H224.688Z" fill="#2FB3FF"/>
<path d="M202.458 26.9824C202.458 20.4036 206.346 16.3551 212.007 16.3551C217.593 16.3551 221.178 20.3257 221.178 26.5542V28.5006H208.006V28.5785C208.006 31.0309 209.78 32.9384 212.422 32.9384C214.309 32.9384 215.404 31.9652 215.668 31.1866H220.99C220.461 33.9894 217.857 37.4151 212.309 37.4151C206.384 37.4151 202.458 33.5223 202.458 26.9824ZM208.044 24.53H215.819C215.668 22.2332 214.234 20.7929 212.045 20.7929C209.856 20.7929 208.346 22.1943 208.044 24.53Z" fill="#2FB3FF"/>
<path d="M183.738 21.4877V16.3551H201.288V21.4877H195.323V37.4151H189.704V21.4877H183.738Z" fill="#2FB3FF"/>
<path d="M167.262 37.4151H161.508V16.3551H167.262V24.054H174.474V16.3551H180.228V37.4151H174.474V29.1866H167.262V37.4151Z" fill="#2FB3FF"/>
<path d="M156.828 9.33521V37.4152H150.969V18.9478L139.288 37.4152H133.428V9.33521H139.288V27.8425L150.969 9.33521H156.828Z" fill="#2FB3FF"/>
</g>
</g>
<defs>
<clipPath id="clip0_81_2607">
<rect width="350" height="47" fill="white"/>
</clipPath>
</defs>
</svg>
